<?xml version="1.0" encoding="utf-8"?>
<!-- Generator: Adobe Illustrator 27.9.0, SVG Export Plug-In . SVG Version: 6.00 Build 0)  -->
<svg version="1.1" id="Capa_1" xmlns="http://www.w3.org/2000/svg" xmlns:xlink="http://www.w3.org/1999/xlink" x="0px" y="0px"
	 viewBox="0 0 16 16" style="enable-background:new 0 0 16 16;" xml:space="preserve">
<style type="text/css">
	.st0{fill:#F6F6F6;}
</style>
<g>
	<g id="Capa_1_00000083061699985322498960000009416986736247050412_">
		<circle cx="8" cy="8" r="7.8"/>
		<path class="st0" d="M8.4,3.6C8.3,3.4,8.2,3.3,8,3.3h0c-0.2,0-0.3,0.1-0.3,0.2l-3.7,8.6c-0.1,0.2,0,0.3,0.2,0.4
			c0.2,0.1,0.3,0,0.4-0.2l1-2.3l0.3-0.8l0,0L8,4.3l2.1,4.8l0,0l0.4,0.9l0,0l1,2.4c0.1,0.2,0.2,0.2,0.4,0.2c0.2-0.1,0.2-0.2,0.2-0.4
			L8.4,3.6L8.4,3.6z"/>
	</g>
</g>
</svg>
